Coordinates
version=1
nRows=11
nColumns=63
inDegrees=yes

Units are S.I. units (second, meters, Newtons, ...)
If the header above contains a line with 'inDegrees', this indicates whether rotational values are in degrees (yes) or radians (no).

endheader
time	pelvis_tilt	pelvis_list	pelvis_rotation	pelvis_tx	pelvis_ty	pelvis_tz	hip_flexion_r	hip_adduction_r	hip_rotation_r	knee_angle_r	knee_angle_r_beta	ankle_angle_r	subtalar_angle_r	mtp_angle_r	hip_flexion_l	hip_adduction_l	hip_rotation_l	knee_angle_l	knee_angle_l_beta	ankle_angle_l	subtalar_angle_l	mtp_angle_l	L5_S1_Flex_Ext	L5_S1_Lat_Bending	L5_S1_axial_rotation	L4_L5_Flex_Ext	L4_L5_Lat_Bending	L4_L5_axial_rotation	L3_L4_Flex_Ext	L3_L4_Lat_Bending	L3_L4_axial_rotation	L2_L3_Flex_Ext	L2_L3_Lat_Bending	L2_L3_axial_rotation	L1_L2_Flex_Ext	L1_L2_Lat_Bending	L1_L2_axial_rotation	L1_T12_Flex_Ext	L1_T12_Lat_Bending	L1_T12_axial_rotation	Abs_r3	Abs_r2	Abs_r1	Abs_t1	Abs_t2	neck_flexion	neck_bending	neck_rotation	arm_flex_r	arm_add_r	arm_rot_r	elbow_flex_r	pro_sup_r	wrist_flex_r	wrist_dev_r	arm_flex_l	arm_add_l	arm_rot_l	elbow_flex_l	pro_sup_l	wrist_flex_l	wrist_dev_l
3.243902	-2.116201	2.161769	87.786079	0.240544	0.839835	0.708626	-10.603393	-0.869509	2.428928	2.920964	0.050980	25.346184	-2.067080	0.000000	-8.187080	1.762431	8.273475	3.538280	0.061755	30.198128	-8.950616	0.000000	-0.004587	-0.294134	-0.359014	-0.008519	-0.391198	-0.381452	-0.007536	-0.715157	-0.381452	-0.005243	-0.715157	-0.314137	-0.004260	-0.599798	-0.291699	-0.002621	-0.455613	-0.269260	-0.032765	-3.327301	-1.996727	0.000000	0.000000	12.110249	4.955563	9.941059	34.604626	-9.462180	-0.127576	129.433277	88.144500	-7.981185	14.082838	40.589789	-23.495552	-14.876585	130.982336	89.519457	-4.344682	0.491021
3.268293	-2.071581	2.053220	87.802444	0.240559	0.839357	0.707740	-10.567487	-0.784028	3.376622	2.800267	0.048874	25.096929	-3.401866	0.000000	-8.133128	1.697600	8.187752	3.485802	0.060839	30.390886	-8.806249	0.000000	0.006543	-0.287779	-0.365558	0.012150	-0.382746	-0.388405	0.010749	-0.699706	-0.388405	0.007478	-0.699706	-0.319863	0.006075	-0.586839	-0.297015	0.003738	-0.445770	-0.274168	0.046733	-3.255415	-2.033121	0.000000	0.000000	12.407886	4.813825	10.095600	33.543831	-9.779431	-0.439867	131.524387	88.028673	-5.913584	14.365954	39.339642	-23.734922	-16.932761	134.106148	89.383057	-2.728384	0.227947
3.292683	-2.014207	1.962046	87.805318	0.240590	0.838930	0.706905	-10.551142	-0.691482	4.336244	2.672420	0.046643	24.844539	-4.729367	0.000000	-8.104382	1.622360	8.234007	3.410087	0.059517	30.507451	-8.801473	0.000000	0.019371	-0.281368	-0.366218	0.035973	-0.374219	-0.389107	0.031824	-0.684118	-0.389107	0.022139	-0.684118	-0.320441	0.017988	-0.573765	-0.297552	0.011068	-0.435839	-0.274664	0.138362	-3.182888	-2.036797	0.000000	0.000000	12.581670	4.689156	10.182772	32.695525	-10.054146	-0.611476	133.052201	87.927804	-4.118741	14.399606	38.155400	-23.886790	-18.940279	136.670999	89.055985	-1.259845	0.331087
3.317073	-1.958685	1.919511	87.762010	0.240660	0.838603	0.706157	-10.572987	-0.618607	5.302940	2.557119	0.044630	24.599440	-6.003135	0.000000	-8.128536	1.558763	8.326266	3.332025	0.058155	30.548200	-8.853895	0.000000	0.030250	-0.276280	-0.360278	0.056178	-0.367452	-0.382795	0.049698	-0.671747	-0.382795	0.034573	-0.671747	-0.315243	0.028091	-0.563390	-0.292726	0.017285	-0.427958	-0.270208	0.216076	-3.125335	-2.003756	0.000000	0.000000	12.580753	4.527520	10.183858	32.156231	-10.255344	-0.589633	133.988754	87.868127	-2.622164	14.606051	37.079684	-24.017563	-20.898562	138.605545	88.893487	0.190370	1.041810
3.341463	-1.892917	1.923304	87.730793	0.240656	0.838371	0.705502	-10.644537	-0.543647	6.169328	2.435347	0.042505	24.371649	-7.130139	0.000000	-8.202521	1.487673	8.575950	3.246610	0.056664	30.485542	-9.036221	0.000000	0.038596	-0.268622	-0.377377	0.071677	-0.357267	-0.400963	0.063410	-0.653126	-0.400963	0.044112	-0.653126	-0.330205	0.035841	-0.547773	-0.306619	0.022054	-0.416095	-0.283033	0.275690	-3.038701	-2.098857	0.000000	0.000000	12.440225	4.338932	10.282315	32.026749	-10.298384	-0.209968	134.173821	87.851470	-1.602940	14.730112	36.032975	-24.230586	-22.859219	139.834198	88.859663	1.371380	2.298737
3.365854	-1.816372	1.962736	87.699685	0.240620	0.838230	0.704908	-10.767322	-0.465025	7.015852	2.283454	0.039854	24.110473	-8.217955	0.000000	-8.330554	1.406310	9.062722	3.122373	0.054496	30.279391	-9.468491	0.000000	0.046613	-0.258362	-0.411351	0.086566	-0.343621	-0.437061	0.076581	-0.628181	-0.437061	0.053274	-0.628181	-0.359933	0.043285	-0.526851	-0.334223	0.026635	-0.400202	-0.308514	0.332954	-2.922639	-2.287813	0.000000	0.000000	12.165886	4.170700	10.471303	32.281905	-10.164722	0.516326	133.547875	87.871189	-1.160227	14.526140	35.074912	-24.543442	-24.741042	140.245701	88.862161	2.271372	4.085943
3.390244	-1.752624	2.036602	87.672655	0.240534	0.838172	0.704393	-10.924469	-0.410637	7.654954	2.136680	0.037292	23.894720	-9.013647	0.000000	-8.493275	1.342684	9.638893	2.992399	0.052227	30.004570	-9.978225	0.000000	0.053107	-0.248473	-0.460008	0.098625	-0.330470	-0.488758	0.087249	-0.604138	-0.488758	0.060696	-0.604138	-0.402507	0.049315	-0.506687	-0.373756	0.030345	-0.384885	-0.345006	0.379338	-2.810782	-2.558426	0.000000	0.000000	11.783883	3.984633	10.595347	32.907410	-9.864862	1.543882	132.192129	87.930608	-1.247351	14.188864	34.225903	-24.962861	-26.456567	139.810715	88.897657	2.673012	6.230943
3.414634	-1.701152	2.142560	87.669356	0.240334	0.838196	0.703971	-11.114613	-0.377103	8.100173	2.000669	0.034918	23.700529	-9.569259	0.000000	-8.683678	1.294179	10.266541	2.859370	0.049905	29.681058	-10.512105	0.000000	0.057113	-0.235323	-0.543776	0.106064	-0.312980	-0.577762	0.093830	-0.572165	-0.577762	0.065274	-0.572165	-0.475804	0.053035	-0.479871	-0.441818	0.032634	-0.364515	-0.407832	0.407949	-2.662022	-3.024320	0.000000	0.000000	11.291087	3.784789	10.927174	33.926128	-9.377469	2.972039	130.149198	88.025194	-1.836093	13.628552	33.396173	-25.491991	-28.210876	138.646837	88.971798	2.762063	8.666960
3.439024	-1.674514	2.268284	87.686226	0.240057	0.838299	0.703683	-11.315649	-0.374570	8.370697	1.895530	0.033083	23.526942	-9.910065	0.000000	-8.881950	1.273816	10.939579	2.729497	0.047639	29.304592	-11.095967	0.000000	0.058869	-0.222385	-0.646114	0.109326	-0.295773	-0.686496	0.096716	-0.540708	-0.686496	0.067282	-0.540708	-0.565349	0.054666	-0.453488	-0.524967	0.033638	-0.344475	-0.484585	0.420497	-2.515668	-3.593490	0.000000	0.000000	10.735539	3.597638	11.259635	35.221528	-8.792136	4.668608	127.694774	88.153491	-2.797988	12.984303	32.665718	-26.044425	-29.848994	136.783747	89.085483	2.498874	10.930764
3.463415	-1.679294	2.409233	87.721838	0.239725	0.838498	0.703579	-11.516370	-0.407392	8.446803	1.832007	0.031975	23.402550	-9.993234	0.000000	-9.075561	1.287222	11.595197	2.612733	0.045601	28.889075	-11.667737	0.000000	0.055922	-0.211276	-0.753452	0.103852	-0.280997	-0.800543	0.091874	-0.513697	-0.800543	0.063913	-0.513697	-0.659271	0.051929	-0.430834	-0.612180	0.031954	-0.327267	-0.565089	0.399442	-2.389998	-4.190474	0.000000	0.000000	10.179612	3.469052	11.523175	36.700513	-8.175366	6.502197	125.094679	88.314697	-3.894915	12.417901	32.077054	-26.554100	-31.248954	134.350493	89.219293	1.762794	12.705178
3.487805	-1.721510	2.539700	87.796645	0.239350	0.838769	0.703684	-11.687055	-0.473597	8.333297	1.814151	0.031663	23.343834	-9.844286	0.000000	-9.226800	1.337161	12.196387	2.531177	0.044177	28.459338	-12.191677	0.000000	0.049729	-0.203829	-0.859391	0.092352	-0.271092	-0.913103	0.081700	-0.495589	-0.913103	0.056835	-0.495589	-0.751967	0.046179	-0.415647	-0.698255	0.028415	-0.315730	-0.644543	0.355211	-2.305750	-4.779675	0.000000	0.000000	9.677000	3.397556	11.651198	38.267776	-7.569820	8.367251	122.582477	88.503412	-4.951495	12.041532	31.631960	-26.979586	-32.377939	131.596656	89.335314	0.565640	14.050683
